<svg xmlns="http://www.w3.org/2000/svg" viewBox="0 0 32 32">
  <!-- An open hand cupping a file: the work happens on your own machine. -->
  <rect x="10" y="2" width="12" height="13" rx="1.5" fill="none" stroke="#c87d42" stroke-width="2" />
  <path d="M13.5 6h5M13.5 9.5h5" stroke="#c87d42" stroke-width="1.6" stroke-linecap="round" />
  <path
    d="M5 21a3 3 0 0 1 5-2.2l2 1.8V13a1.7 1.7 0 0 1 3.4 0v4.5a1.7 1.7 0 0 1 3.4 0v.8a1.7 1.7 0 0 1 3.4 0v.9a1.7 1.7 0 0 1 3.4 0V24a6 6 0 0 1-6 6h-4.3a6 6 0 0 1-4.6-2.2z"
    fill="none"
    stroke="#c87d42"
    stroke-width="2"
    stroke-linejoin="round"
    stroke-linecap="round"
  />
</svg>
